<svg width="20" height="22" viewBox="0 0 20 22" fill="none" xmlns="http://www.w3.org/2000/svg">
<path d="M16.9893 16.5273C16.9381 16.0124 16.71 15.5283 16.3408 15.1592C15.9189 14.7372 15.3467 14.5 14.75 14.5C14.1533 14.5 13.5811 14.7372 13.1592 15.1592C12.7372 15.5811 12.5 16.1533 12.5 16.75C12.5 17.3467 12.7372 17.9189 13.1592 18.3408C13.5811 18.7628 14.1533 19 14.75 19L14.9727 18.9893C15.4876 18.9381 15.9717 18.71 16.3408 18.3408C16.7628 17.9189 17 17.3467 17 16.75L16.9893 16.5273ZM18.4951 16.9355C18.4617 17.6102 18.2466 18.2595 17.8779 18.8174L19.2803 20.2197C19.5732 20.5126 19.5732 20.9874 19.2803 21.2803C18.9874 21.5732 18.5126 21.5732 18.2197 21.2803L16.8174 19.8779C16.2595 20.2466 15.6102 20.4617 14.9355 20.4951L14.75 20.5C13.7554 20.5 12.8019 20.1046 12.0986 19.4014C11.3954 18.6981 11 17.7446 11 16.75C11 15.7554 11.3954 14.8019 12.0986 14.0986C12.8019 13.3954 13.7554 13 14.75 13C15.7446 13 16.6981 13.3954 17.4014 14.0986C18.1046 14.8019 18.5 15.7554 18.5 16.75L18.4951 16.9355Z" fill="#EEE8AA"/>
<path d="M16 10.75V4.56055L12.9395 1.5H1.5V20H7.75C8.16421 20 8.5 20.3358 8.5 20.75C8.5 21.1642 8.16421 21.5 7.75 21.5H1.34961C0.991709 21.4999 0.648591 21.3576 0.395508 21.1045C0.142425 20.8514 0.000103511 20.5083 0 20.1504V1.34961C0.000103385 0.991708 0.142426 0.64859 0.395508 0.395508C0.64859 0.142426 0.991708 0.000103385 1.34961 0H13.0029L13.1357 0.00683594C13.4445 0.0376919 13.7347 0.174173 13.9561 0.395508L17.1035 3.54297C17.1979 3.63722 17.2782 3.74508 17.3408 3.8623L17.3975 3.98242L17.4424 4.10742C17.4807 4.23415 17.5 4.36614 17.5 4.49902V10.75C17.5 11.1642 17.1642 11.5 16.75 11.5C16.3358 11.5 16 11.1642 16 10.75Z" fill="#EEE8AA"/>
<path d="M12 0.75C12 0.335786 12.3358 0 12.75 0C13.1642 0 13.5 0.335786 13.5 0.75V4H16.75C17.1642 4 17.5 4.33579 17.5 4.75C17.5 5.16421 17.1642 5.5 16.75 5.5H13.3496C12.9917 5.4999 12.6486 5.35757 12.3955 5.10449C12.1424 4.85141 12.0001 4.50829 12 4.15039V0.75Z" fill="#EEE8AA"/>
</svg>
